<?xml version="1.0" encoding="UTF-8" standalone="no"?>
<!-- Created with Inkscape (http://www.inkscape.org/) -->

<svg
   xmlns:dc="http://purl.org/dc/elements/1.1/"
   xmlns:cc="http://creativecommons.org/ns#"
   xmlns:rdf="http://www.w3.org/1999/02/22-rdf-syntax-ns#"
   xmlns:svg="http://www.w3.org/2000/svg"
   xmlns="http://www.w3.org/2000/svg"
   xmlns:xlink="http://www.w3.org/1999/xlink"
   xmlns:sodipodi="http://sodipodi.sourceforge.net/DTD/sodipodi-0.dtd"
   xmlns:inkscape="http://www.inkscape.org/namespaces/inkscape"
   width="256"
   height="256"
   viewBox="0 0 256.00001 256.00001"
   id="svg5468"
   version="1.1"
   inkscape:version="0.92.4 (5da689c313, 2019-01-14)"
   sodipodi:docname="icon_large.svg">
  <defs
     id="defs5470">
    <linearGradient
       inkscape:collect="always"
       id="linearGradient1028">
      <stop
         style="stop-color:#ebb933;stop-opacity:1"
         offset="0"
         id="stop1024" />
      <stop
         id="stop1032"
         offset="0.84367543"
         style="stop-color:#ff6632;stop-opacity:1" />
      <stop
         style="stop-color:#f11313;stop-opacity:1"
         offset="1"
         id="stop1026" />
    </linearGradient>
    <linearGradient
       inkscape:collect="always"
       id="linearGradient886">
      <stop
         style="stop-color:#0f69a3;stop-opacity:0.75294119"
         offset="0"
         id="stop882" />
      <stop
         id="stop1055"
         offset="0.24476095"
         style="stop-color:#1a5b9c;stop-opacity:0.7372549;" />
      <stop
         style="stop-color:#3e3187;stop-opacity:0.69158876"
         offset="1"
         id="stop884" />
    </linearGradient>
    <radialGradient
       inkscape:collect="always"
       xlink:href="#linearGradient4973"
       id="radialGradient3811"
       gradientUnits="userSpaceOnUse"
       gradientTransform="matrix(-0.84016003,0.00479502,0.00580962,1.0179333,-1446.3571,1283.0054)"
       cx="8.958703"
       cy="261.89456"
       fx="8.958703"
       fy="261.89456"
       r="38.773045" />
    <linearGradient
       inkscape:collect="always"
       id="linearGradient4973">
      <stop
         style="stop-color:#c7f6f9;stop-opacity:1"
         offset="0"
         id="stop4975" />
      <stop
         style="stop-color:#afd2e4;stop-opacity:1"
         offset="1"
         id="stop4977" />
    </linearGradient>
    <linearGradient
       inkscape:collect="always"
       id="linearGradient4957">
      <stop
         style="stop-color:#a9c5cb;stop-opacity:1"
         offset="0"
         id="stop4959" />
      <stop
         style="stop-color:#b7d4da;stop-opacity:1"
         offset="1"
         id="stop4961" />
    </linearGradient>
    <filter
       inkscape:collect="always"
       id="filter4953"
       x="-0.065523051"
       width="1.1310461"
       y="-0.94336605"
       height="2.8867321"
       style="color-interpolation-filters:sRGB">
      <feGaussianBlur
         inkscape:collect="always"
         stdDeviation="1.2550481"
         id="feGaussianBlur4955" />
    </filter>
    <filter
       inkscape:collect="always"
       id="filter5749"
       x="-0.12825651"
       width="1.256513"
       y="-0.67377675"
       height="2.3475535"
       style="color-interpolation-filters:sRGB">
      <feGaussianBlur
         inkscape:collect="always"
         stdDeviation="3.9055312"
         id="feGaussianBlur5751" />
    </filter>
    <linearGradient
       id="linearGradient2471"
       y2="39.534"
       gradientUnits="userSpaceOnUse"
       x2="20.054001"
       y1="10.034"
       x1="103.8"
       inkscape:collect="always">
      <stop
         id="stop2467"
         style="stop-color:#002255"
         offset="0" />
      <stop
         id="stop2469"
         style="stop-color:#002255;stop-opacity:0"
         offset="1" />
    </linearGradient>
    <radialGradient
       id="radialGradient2456"
       gradientUnits="userSpaceOnUse"
       cy="1023.6"
       cx="548.23999"
       gradientTransform="matrix(-0.53693361,0.75723559,-0.20630981,-0.14628642,-883.75201,1161.0959)"
       r="101.67"
       inkscape:collect="always"
       xlink:href="#linearGradient2471">
      <stop
         id="stop91306"
         style="stop-color:#ffffff;stop-opacity:.69072"
         offset="0" />
      <stop
         id="stop91308"
         style="stop-color:#f5880c;stop-opacity:0"
         offset="1" />
    </radialGradient>
    <radialGradient
       inkscape:collect="always"
       xlink:href="#linearGradient886"
       id="radialGradient896"
       cx="-1452.0812"
       cy="1603.9426"
       fx="-1452.0812"
       fy="1603.9426"
       r="31.285051"
       gradientTransform="matrix(1.6551466,0,0,1.4768953,951.326,-767.00645)"
       gradientUnits="userSpaceOnUse" />
    <linearGradient
       inkscape:collect="always"
       xlink:href="#linearGradient1028"
       id="linearGradient1030"
       x1="96.878998"
       y1="-5.7108998"
       x2="-28.834406"
       y2="86.516472"
       gradientUnits="userSpaceOnUse"
       gradientTransform="matrix(0.73919884,-0.37081568,0.37081568,0.73919884,-1422.8434,1440.8363)" />
    <radialGradient
       inkscape:collect="always"
       xlink:href="#linearGradient4957"
       id="radialGradient1039"
       cx="-1451.6207"
       cy="1553.0765"
       fx="-1451.6207"
       fy="1553.0765"
       r="27.983134"
       gradientTransform="matrix(1.0185816,-3.3908069e-6,6.0585317e-7,0.34306446,26.972584,999.72541)"
       gradientUnits="userSpaceOnUse" />
  </defs>
  <sodipodi:namedview
     id="base"
     pagecolor="#ffffff"
     bordercolor="#666666"
     borderopacity="1.0"
     inkscape:pageopacity="0.0"
     inkscape:pageshadow="2"
     inkscape:zoom="1.9233316"
     inkscape:cx="-102.61086"
     inkscape:cy="103.23471"
     inkscape:document-units="px"
     inkscape:current-layer="layer1"
     showgrid="false"
     units="px"
     inkscape:showpageshadow="false"
     inkscape:window-width="1920"
     inkscape:window-height="1017"
     inkscape:window-x="-8"
     inkscape:window-y="-8"
     inkscape:window-maximized="1"
     fit-margin-top="0"
     fit-margin-left="0"
     fit-margin-right="0"
     fit-margin-bottom="0" />
  <metadata
     id="metadata5473">
    <rdf:RDF>
      <cc:Work
         rdf:about="">
        <dc:format>image/svg+xml</dc:format>
        <dc:type
           rdf:resource="http://purl.org/dc/dcmitype/StillImage" />
        <dc:title />
      </cc:Work>
    </rdf:RDF>
  </metadata>
  <g
     inkscape:label="Layer 1"
     inkscape:groupmode="layer"
     id="layer1"
     transform="translate(1568.091,-1370.2927)">
    <g
       id="g1048"
       transform="matrix(2.2947777,0,0,2.2947777,1854.8295,-2092.655)">
      <path
         style="fill:url(#radialGradient3811);fill-opacity:1;fill-rule:evenodd;stroke:#a9cfe3;stroke-width:1.5;stroke-miterlimit:4;stroke-dasharray:none;stroke-opacity:1"
         d="m -1424.444,1525.4663 c 0,0 2.2258,1.7452 -3.631,2.6012 -1.6839,0.2462 -3.5472,0.4742 -5.5183,0.6503 l -2.4711,6.2558 c -2.776,7.0273 10.7193,3.3349 17.0936,11.9026 7.4407,10.0012 7.8014,57.0218 2.9542,62.3303 -8.4747,9.2811 -18.008,3.1404 -33.9341,3.0608 -15.9261,-0.08 -25.8449,4.5242 -35.0907,-3.2838 -6.1964,-5.2328 -5.4321,-55.2176 1.1148,-63.2221 7.1795,-8.7777 19.0589,-2.1173 16.3319,-10.825 l -1.8952,-6.0514 c -2.0636,-0.1472 -3.9814,-0.3225 -5.6483,-0.5202 -3.7563,-0.4454 -3.852,-2.6022 -3.852,-2.6022 z"
         id="path5772"
         sodipodi:nodetypes="cscssssssscscc"
         inkscape:connector-curvature="0" />
      <path
         sodipodi:nodetypes="sszzsss"
         id="path5774"
         d="m -1428.1419,1521.4105 c 5.8775,1.7276 4.4833,5.7865 4.4248,7.3791 -0.1003,2.7303 -18.5571,3.7584 -27.9036,3.746 -9.3465,-0.014 -27.9331,0.7692 -27.9037,-3.8207 0.029,-4.5898 0.5953,-5.1241 4.3389,-6.2659 5.7636,-1.7579 14.3247,0.9982 23.0305,0.7037 8.7059,-0.2947 17.5566,-3.6399 24.0131,-1.7422 z"
         style="fill:url(#radialGradient1039);fill-opacity:1;fill-rule:evenodd;stroke:#a8c7ce;stroke-width:1.75760043;stroke-miterlimit:4;stroke-dasharray:none;stroke-opacity:1"
         inkscape:connector-curvature="0" />
      <path
         transform="matrix(-0.72191503,0.01728252,0.00708976,1.7597931,-900.89572,230.08299)"
         sodipodi:nodetypes="cccss"
         id="path5776"
         d="m 750.12563,730.81783 c -4.81602,-0.62821 -3.59955,-2.01867 -3.59955,-2.01867 l 45.83329,-0.28002 c 0,0 -0.51886,1.77874 -3.59955,2.15818 -9.48581,1.16834 -28.05356,1.52064 -38.63419,0.14051 z"
         style="fill:#000000;fill-opacity:0;fill-rule:evenodd;stroke:none;filter:url(#filter4953)"
         inkscape:connector-curvature="0" />
      <path
         sodipodi:nodetypes="csszszs"
         id="path5778"
         d="m -1480.5028,1551.3334 c 5.9133,-4.0119 5.934,5.0648 28.8431,5.0866 19.2975,0.01 23.9643,-8.0926 29.6073,-4.1133 4.055,2.8595 2.0944,44.6298 -0.9209,48.592 -3.0154,3.9622 -12.4557,6.7997 -27.1257,6.7339 -14.6699,-0.066 -24.1193,-3.0402 -28.1885,-6.9104 -4.0692,-3.8703 -5.5175,-47.1485 -2.2153,-49.3888 z"
         style="fill:url(#radialGradient896);fill-opacity:1;fill-rule:evenodd;stroke:#1c6186;stroke-width:0.72194982;stroke-opacity:1"
         inkscape:connector-curvature="0" />
      <path
         transform="matrix(-0.68889426,0,0,0.68889426,-1239.7572,1026.8116)"
         inkscape:connector-curvature="0"
         sodipodi:nodetypes="czc"
         id="path5134"
         d="m 268.94322,754.55635 c 0,0 22.6472,10.50552 39.94113,10.29289 17.2534,-0.21213 38.94112,-8.70711 38.94112,-8.70711"
         style="fill:none;stroke:#ffffff;stroke-width:5.19999981;stroke-linecap:round;stroke-linejoin:round;stroke-miterlimit:4;stroke-dasharray:none;stroke-opacity:0.64018692;filter:url(#filter5749)" />
    </g>
    <g
       id="g1053"
       transform="matrix(1.4035822,-0.19642902,0.298475,1.108793,122.11618,-385.68281)">
      <path
         inkscape:connector-curvature="0"
         id="path91270"
         sodipodi:nodetypes="csccccccccccccscccccccccccccccccccscccccccccccccccscccccccccccccccccccccccccccccccccccccccccccccscccccccccccccccscccccccccccccccccccccscccccccccccccccccccccccccccccccccccccccccccccccccccccccccscccc"
         style="fill:url(#linearGradient1030);fill-opacity:1;fill-rule:evenodd;stroke-width:0.82699406"
         d="m -1331.0974,1384.1067 c -2.3828,0.9307 -4.8354,2.1832 -7.2454,3.7789 -1.0909,0.7212 -2.8545,1.9455 -4.0809,2.8206 4.2755,-1.8792 5.4803,-2.0227 8.1512,-2.9693 -3.1325,1.2805 -7.66,2.6758 -8.971,3.5851 -0.889,0.644 -1.7806,1.2828 -2.6934,1.9531 2.0795,-1.0373 2.8662,-1.0184 4.2956,-1.5257 -1.6812,0.6878 -3.9039,1.3105 -5.0363,2.0594 -0.9866,0.7262 -1.9569,1.4478 -2.938,2.1664 2.9733,-1.3951 3.3318,-1.1784 4.9977,-1.7675 -1.9492,0.7991 -5.0478,1.7967 -5.8402,2.3934 -1.3073,0.9535 -2.5703,1.8701 -3.7687,2.7051 4.563,-1.9885 3.4961,-1.2382 5.2404,-1.8554 -2.0805,0.8509 -4.9412,1.6975 -6.2444,2.5543 -0.7601,0.5173 -1.4639,0.9954 -2.1401,1.4181 -0.674,0.4214 -1.3676,0.9053 -2.0486,1.4124 4.5037,-1.9261 4.0475,-1.4301 6.0713,-2.145 -2.3408,0.9554 -3.698,1.1807 -7.0209,2.8656 -1.1588,0.9137 -2.2637,1.8799 -3.305,2.8271 3.5366,-1.4839 4.3768,-1.5501 6.5648,-2.325 -2.421,0.9892 -6.3068,2.1494 -7.2629,2.9678 -1.1071,1.0316 -2.0994,1.9971 -2.8255,2.7353 1.9479,-1.1189 5.1479,-1.8222 7.7219,-2.7333 l -8.4391,3.4523 c -0.3359,0.3521 -0.7035,0.7555 -0.7035,0.7555 0,0 -0.9202,0.8234 -2.3738,2.1825 3.7104,-1.6465 5.3396,-1.892 8.0097,-2.8382 -2.9812,1.2205 -7.1194,2.4089 -8.943,3.6612 -1.0534,0.9987 -2.1365,2.093 -3.5463,3.5137 3.5969,-1.5372 4.4041,-1.5602 6.6062,-2.3402 -2.3936,0.9792 -7.2874,2.7326 -7.1807,2.9378 -0.9373,0.9535 -1.9143,1.9569 -2.9419,3.055 2.6358,-1.321 5.0103,-1.7719 7.5155,-2.6579 -2.7178,1.1113 -7.3331,2.7245 -8.1548,3.3347 -0.034,0.036 -0.067,0.069 -0.1013,0.1062 -1.2357,1.3378 -2.051,2.2486 -3.0304,3.3229 2.8989,-1.3701 5.7267,-2.024 8.5905,-3.0362 -3.0982,1.264 -7.8669,2.8703 -9.294,3.7917 -0.8386,0.9214 -1.8282,2.0067 -2.6626,2.9255 3.2861,-1.5941 5.4491,-1.932 8.174,-2.8982 -2.9352,1.2 -7.0552,2.4081 -8.8048,3.5995 -0.9571,1.0541 -1.7878,1.9489 -3.0995,3.3898 5.5617,-2.2643 5.7266,-2.0242 8.5905,-3.0361 -3.0843,1.2585 -7.8141,2.6178 -9.2526,3.7764 -0.8265,0.9068 -1.0034,1.1075 -2.0973,2.3039 5.2478,-2.1801 7.1014,-2.5168 10.6524,-3.7745 -3.8417,1.5672 -9.4726,3.2437 -11.5259,4.7021 -1.2032,1.3142 -1.9953,2.2029 -3.5959,3.9458 3.3387,-1.5832 6.9365,-2.4564 10.4051,-3.6847 -3.76,1.5383 -7.7294,2.5007 -11.2793,4.6127 -0.205,0.224 -0.2519,0.2855 -0.4646,0.5162 -1.0803,1.1756 -2.0819,2.224 -3.0898,3.2894 2.8163,-1.4665 7.8455,-2.7783 11.7681,-4.1678 -4.201,1.7216 -11.2986,4.0377 -12.6037,5.1652 -1.4682,1.5386 -3.0262,3.0474 -4.3725,4.4084 7.0984,-3.1464 9.1683,-3.2419 13.7518,-4.8631 -5.0039,2.0467 -12.4571,4.4745 -15.0112,6.1407 -0.9883,0.9898 -1.9435,1.9353 -2.8762,2.851 6.3098,-2.8507 9.4418,-3.3421 14.1629,-5.0138 -5.1655,2.1157 -13.584,4.7993 -15.4963,6.3451 -1.4426,1.4056 -2.8498,2.7444 -4.1756,4.0182 6.5561,-3.1944 10.4751,-4.4304 15.7125,-6.646 -5.9051,2.8559 -15.3622,6.4407 -17.7153,8.5685 -1.5284,1.4727 -2.986,2.895 -4.3969,4.306 6.4633,-3.3052 10.8256,-4.5766 16.2385,-6.8646 -6.0503,2.9269 -16.8857,7.1532 -18.1503,8.7821 -1.1638,1.201 -2.2939,2.4137 -3.4162,3.6715 10.7118,-5.2865 11.4447,-4.84 17.1663,-7.2596 -6.1835,2.878 -11.3689,4.5337 -18.5511,8.6343 -0.5908,0.6943 -1.3497,1.8225 -1.9387,2.5537 10.2926,-5.2039 11.3113,-4.7814 16.966,-7.1721 -6.0759,2.9416 -11.2901,4.5728 -18.2279,8.8248 -0.888,1.1495 -1.7888,2.3379 -2.6914,3.615 l 17.8949,-7.5668 -19.0614,9.2253 c -0.7224,1.0591 -1.3542,2.3928 -1.9448,3.2701 4.5142,-2.5763 10.3715,-4.7957 15.5557,-6.9865 -5.5087,2.6654 -11.2441,4.7089 -16.526,7.996 -0.6773,1.0142 -1.7562,2.3475 -2.2696,3.1352 5.3156,-2.9395 11.5071,-5.1638 17.041,-7.5059 -5.8657,2.8371 -16.5833,7.1347 -17.5677,8.5917 -0.4359,0.6896 -0.7883,1.2966 -1.1042,1.8307 4.644,-2.6183 10.8777,-4.6056 16.3169,-6.9076 -5.706,2.7643 -12.9792,5.4201 -17.1165,8.2941 -0.3435,0.6395 -0.6161,1.1972 -0.8573,1.7401 6.045,-3.2119 11.1768,-4.7232 16.7646,-7.085 -5.7725,2.794 -11.786,4.9271 -17.3169,8.3816 -0.2193,0.5218 -0.091,0.9599 -0.3965,1.6497 2.6765,-1.734 9.555,-4.1493 14.483,-6.2328 -5.0984,2.4688 -13.7878,5.5972 -15.2944,7.4078 -0.3337,0.7197 -1.4637,2.049 -1.9598,3.0408 7.6093,-4.0753 10.3411,-4.5279 15.5108,-6.7919 -5.1376,2.4884 -11.8013,5.0698 -15.4134,7.4656 -0.2852,0.5566 -0.938,1.3634 -1.2804,2.0125 6.6798,-3.645 9.2709,-4.2546 13.9066,-6.3821 -4.6916,2.3905 -11.896,5.2959 -14.0753,7.1709 -0.054,0.1021 -0.083,0.1547 -0.1394,0.2587 -0.2435,0.4534 -0.6457,1.1806 -0.8009,1.5888 1.0963,-0.8229 7.1464,-3.4527 10.7275,-5.1816 -3.6255,2.0112 -10.4249,5.1797 -10.8573,6.0257 -0.1091,0.5534 -0.1576,1.3956 -0.086,1.8482 4.5413,-2.7768 7.0984,-3.633 10.6476,-5.4496 -3.4349,2.1312 -9.833,4.5432 -10.2715,6.0594 3.1152,5.889 25.6681,0.4515 37.4647,-6.8319 -0.8751,-1.7112 -3.3405,-1.4468 -7.0911,-2.5695 4.2063,0.8765 8.0506,1.0186 8.4563,1.8366 2.3297,-1.1215 6.1518,-2.9325 8.3797,-4.1241 -0.3146,-1.8795 -4.495,-2.4813 -9.101,-3.8595 5.231,1.0527 11.4695,1.3233 10.9822,2.8825 1.363,-0.767 3.9845,-2.3115 5.2628,-3.0842 -1.1234,-2.3083 -8.0045,-2.7719 -13.7089,-4.48 6.44,1.253 15.0827,1.5269 15.9173,3.1205 1.8561,-1.2096 4.9347,-3.2757 6.4498,-4.4318 0.5091,-0.3886 0.965,-0.7672 1.4453,-1.1506 -2.6627,-2.4437 -12.5305,-2.1197 -19.8779,-2.7288 7.8753,0.2092 16.7162,-0.033 20.7005,1.9155 0.6091,-0.5507 5.5894,-4.5368 6.1626,-5.089 -6.0867,-2.1278 -15.7792,-2.1572 -23.8326,-2.451 8.5644,-0.2799 17.2617,0.5217 24.2795,1.3738 1.0377,-1.1442 3.2794,-3.3761 4.212,-4.5583 -4.9635,-1.8993 -22.2555,-1.2807 -24.1075,-1.1584 0.4141,-0.045 15.1285,-1.3255 25.3253,-0.1029 0.6862,-0.9891 2.8863,-4.4252 3.5536,-5.4687 -5.526,-0.9676 -14.1684,-1.1704 -22.2176,-0.8362 8.1228,-0.6505 11.698,-0.7129 23.6524,-0.7264 0.4735,-0.7862 2.6392,-3.9164 3.12,-4.7415 -4.6355,-1.6012 -13.7509,-0.9653 -23.1054,-0.4574 9.61,-1.0941 11.3935,-1.2976 23.338,-0.6946 0.6015,-1.0641 1.8673,-3.753 2.5052,-4.8918 -2.9245,-1.5566 -14.7383,-0.042 -23.8564,1.0647 9.0349,-1.4088 13.3073,-1.9385 24.011,-2.1748 0.2882,-0.5138 2.0105,-3.6852 2.4925,-4.4156 -9.4565,0.01 -16.274,1.2885 -25.1388,2.9183 9.1216,-1.8539 16.9776,-3.6335 25.8732,-3.5883 0.1878,-0.2987 0.4245,-0.62 0.568,-0.8724 0.3081,-0.5404 1.1567,-1.8552 1.4319,-2.3375 -6.1073,0.2085 -15.2289,1.5183 -23.2105,3.4756 8.0974,-2.28 14.2127,-2.8321 23.5595,-4.4343 1.1816,-2.0527 2.5762,-2.9318 3.2925,-4.1396 -15.7032,1.9968 -16.494,1.892 -23.5082,3.8063 11.0631,-3.1423 15.4796,-3.4954 23.7844,-4.7109 0.4114,-0.7162 1.9004,-3.5079 2.4581,-4.6388 -5.934,0.3676 -16.5351,1.5277 -26.058,4.4868 9.6574,-3.3291 19.6796,-4.5569 26.3866,-5.7573 0.1811,-0.3657 1.9976,-3.3235 2.1909,-3.7091 -2.4858,-0.3203 -15.3781,1.3868 -24.5182,4.6183 9.3659,-3.639 18.7018,-4.2708 25.1938,-5.8352 0.2811,-0.5407 1.4343,-2.2295 1.7312,-2.7939 -4.7118,1.0758 -15.417,1.5895 -24.8402,5.013 9.502,-3.7183 20.6795,-4.7142 25.0802,-5.8902 0.1565,-0.282 1.1749,-1.8097 1.3335,-2.0947 -4.9354,0.9159 -14.3168,1.577 -23.1776,4.587 8.9685,-3.2861 19.2088,-4.6232 23.485,-5.4055 0.197,-0.3505 0.7952,-1.3953 0.9944,-1.7488 l -22.2102,3.9148 22.6678,-4.705 c 0.255,-0.4508 0.5007,-0.9183 0.7586,-1.3724 -3.6401,-0.6387 -12.3784,1.9202 -18.5779,2.8818 6.2942,-1.2136 12.7163,-3.6737 18.8617,-3.6367 0.3066,-0.5377 1.1808,-1.7627 1.4918,-2.3046 -3.7693,-0.4499 -11.2455,1.6536 -17.4505,2.6504 6.422,-1.3869 17.6952,-3.8778 17.5089,-3.2533 0.2668,-0.4641 1.1631,-1.4994 1.4298,-1.9635 -1.1164,-0.4549 -10.7749,1.7543 -16.4348,2.7514 5.554,-1.0791 15.7764,-3.6951 16.6716,-3.2384 0.3473,-0.5989 0.9835,-1.636 1.3319,-2.2327 -6.6287,0.025 -10.3809,1.5955 -15.5806,2.3979 5.3661,-1.0848 12.6384,-2.988 15.7227,-2.9077 0.3439,-0.587 1.0901,-1.5156 1.4318,-2.0886 -0.4643,-0.7228 -10.2241,1.5761 -15.3191,2.3583 5.2482,-1.0413 13.7725,-3.1728 15.5789,-2.7994 0.2111,-0.3539 0.5797,-1.0393 0.7967,-1.3998 -1.2318,-0.7218 -8.0995,0.6194 -12.1603,0.9293 4.1888,-0.5157 11.9076,-2.134 12.5397,-1.5379 0.4207,-0.7106 0.827,-1.3761 1.2517,-2.0787 0.3976,-0.5538 -9.5183,1.3876 -14.1936,2.0031 4.8377,-0.882 12.1571,-2.6691 14.5175,-2.6485 0.217,-0.3605 0.7884,-1.2134 1.0065,-1.5717 -7.6066,0.274 -10.7057,1.3998 -16.063,2.1021 5.5059,-0.9777 13.617,-3.0865 16.508,-2.9304 0.3642,-0.6018 1.0957,-1.6888 1.4571,-2.278 -1.1798,-0.4706 -10.1735,1.3358 -15.2602,2.0037 5.1381,-0.8789 13.7546,-3.0315 15.3968,-2.635 0.3931,-0.6366 1.4065,-1.881 1.799,-2.5003 -0.7274,-0.6938 -9.2031,1.2045 -13.7972,1.8031 4.7658,-0.9018 11.913,-2.7741 14.305,-2.7089 0.5709,-0.9091 1.3605,-2.0648 1.9146,-2.9153 1.6516,-1.2632 -7.9632,1.0017 -12.0568,1.5838 4.1948,-0.7861 10.2414,-2.8235 12.5686,-2.3526 0.8783,-1.3293 1.8549,-2.7761 2.6391,-3.8871 -0.9964,-0.6214 -7.2949,0.9507 -10.9423,1.4261 3.7785,-0.6751 8.883,-2.1745 11.3581,-2.0912 0.3229,-0.4444 0.9649,-1.2489 1.2679,-1.6408 0.548,-0.7151 0.9037,-1.3523 1.1583,-1.933 -0.5475,-0.5197 -5.3739,0.704 -8.0573,1.054 2.7614,-0.5634 5.6853,-1.5589 8.2914,-1.694 1.0295,-3.7943 -4.9557,-4.0875 -12.0881,-1.3006 z" />
      <path
         inkscape:connector-curvature="0"
         id="path91298"
         sodipodi:nodetypes="csccccccccccccscccccccccccccccccccscccccccccccccccscccccccccccccccccccccccccccccccccccccccccccccscccccccccccccccscccccccccccccccccccccscccccccccccccccccccccccccccccccccccccccccccccccccccccccccscccc"
         style="fill:url(#radialGradient2456);fill-opacity:1;fill-rule:evenodd;stroke-width:0.82699406"
         d="m -1334.4208,1388.0351 c -2.3828,0.9307 -4.8355,2.1832 -7.2455,3.7789 -1.0908,0.7212 -2.8544,1.9455 -4.0808,2.8206 4.2755,-1.8792 5.4803,-2.0227 8.1512,-2.9693 -3.1325,1.2805 -7.6601,2.6758 -8.9711,3.5851 -0.889,0.644 -1.7806,1.2827 -2.6934,1.953 2.0795,-1.0373 2.8663,-1.0183 4.2957,-1.5255 -1.6813,0.6876 -3.904,1.3104 -5.0363,2.0594 -0.9866,0.7261 -1.9569,1.4477 -2.938,2.1663 2.9733,-1.3951 3.3318,-1.1784 4.9977,-1.7676 -1.9492,0.7992 -5.0479,1.7967 -5.8403,2.3935 -1.3073,0.9535 -2.5702,1.8701 -3.7687,2.7051 4.5631,-1.9885 3.4961,-1.2382 5.2405,-1.8554 -2.0805,0.8509 -4.9412,1.6976 -6.2444,2.5542 -0.7601,0.5173 -1.4639,0.9955 -2.1401,1.4182 -0.6741,0.4214 -1.3677,0.9052 -2.0486,1.4124 4.5036,-1.9261 4.0474,-1.4301 6.0712,-2.145 -2.3408,0.9554 -3.6979,1.1808 -7.0208,2.8656 -1.1589,0.9137 -2.2637,1.8799 -3.305,2.8271 3.5366,-1.4839 4.3768,-1.5501 6.5648,-2.325 -2.421,0.9892 -6.3068,2.1494 -7.2629,2.9677 -1.1072,1.0317 -2.0995,1.9972 -2.8255,2.7354 1.9479,-1.1189 5.1479,-1.8222 7.7218,-2.7334 l -8.439,3.4525 c -0.3359,0.352 -0.7035,0.7554 -0.7035,0.7554 0,0 -0.9202,0.8234 -2.3738,2.1826 3.7103,-1.6466 5.3395,-1.8922 8.0097,-2.8384 -2.9813,1.2206 -7.1194,2.409 -8.9431,3.6613 -1.0533,0.9987 -2.1364,2.093 -3.5462,3.5137 3.5968,-1.5372 4.4041,-1.5601 6.6062,-2.3402 -2.3936,0.9792 -7.2874,2.7326 -7.1808,2.9378 -0.9372,0.9535 -1.9142,1.9569 -2.9418,3.055 2.6357,-1.3211 5.0103,-1.7719 7.5155,-2.6579 -2.7179,1.1113 -7.3331,2.7246 -8.1549,3.3347 -0.034,0.036 -0.067,0.069 -0.1012,0.1062 -1.2357,1.3378 -2.0511,2.2486 -3.0304,3.3229 2.8988,-1.3701 5.7267,-2.024 8.5904,-3.0362 -3.0982,1.264 -7.8668,2.8703 -9.2939,3.7917 -0.8387,0.9214 -1.8282,2.0067 -2.6626,2.9255 3.2861,-1.5941 5.449,-1.932 8.174,-2.8981 -2.9352,1.1999 -7.0552,2.408 -8.8048,3.5994 -0.9571,1.0541 -1.7878,1.9489 -3.0996,3.3898 5.5618,-2.2643 5.7267,-2.0242 8.5905,-3.0361 -3.0843,1.2585 -7.814,2.6177 -9.2525,3.7764 -0.8266,0.9068 -1.0034,1.1075 -2.0973,2.3039 5.2478,-2.1801 7.1013,-2.5168 10.6524,-3.7745 -3.8417,1.5672 -9.4726,3.2437 -11.5259,4.7021 -1.2032,1.3142 -1.9954,2.2029 -3.596,3.9458 3.3387,-1.5832 6.9365,-2.4564 10.4052,-3.6847 -3.7601,1.5383 -7.7294,2.5007 -11.2794,4.6127 -0.2049,0.224 -0.2518,0.2855 -0.4646,0.5162 -1.0802,1.1756 -2.0818,2.224 -3.0897,3.2894 2.8162,-1.4665 7.8455,-2.7783 11.7681,-4.1678 -4.201,1.7216 -11.2986,4.0377 -12.6038,5.1652 -1.4681,1.5386 -3.0261,3.0474 -4.3724,4.4084 7.0983,-3.1464 9.1682,-3.2419 13.7518,-4.8631 -5.0039,2.0467 -12.4571,4.4745 -15.0113,6.1407 -0.9882,0.9898 -1.9435,1.9353 -2.8761,2.851 6.3097,-2.8507 9.4418,-3.3421 14.1628,-5.0138 -5.1654,2.1157 -13.5836,4.8 -15.4962,6.3451 -1.4426,1.4056 -2.8499,2.7444 -4.1756,4.0182 6.556,-3.1944 10.4751,-4.4304 15.7125,-6.646 -5.9051,2.8559 -15.3622,6.4407 -17.7153,8.5685 -1.5284,1.4727 -2.986,2.895 -4.397,4.306 6.4634,-3.3052 10.8256,-4.5766 16.2386,-6.8646 -6.0503,2.9269 -16.8858,7.1532 -18.1503,8.7821 -1.1638,1.201 -2.2943,2.413 -3.4163,3.6715 10.7119,-5.2865 11.4448,-4.84 17.1664,-7.2596 -6.1835,2.878 -11.369,4.5337 -18.5511,8.6343 -0.5908,0.6942 -1.3498,1.8225 -1.9387,2.5537 10.2926,-5.2039 11.3113,-4.7814 16.966,-7.1721 -6.076,2.9416 -11.2901,4.5728 -18.2279,8.8248 -0.888,1.1495 -1.7889,2.3379 -2.6914,3.615 l 17.8949,-7.5668 -19.0615,9.2253 c -0.7224,1.059 -1.3541,2.3928 -1.9447,3.2701 4.5142,-2.5763 10.3715,-4.7957 15.5556,-6.9865 -5.5086,2.6654 -11.244,4.7089 -16.5259,7.996 -0.6773,1.0142 -1.7562,2.3475 -2.2697,3.1352 5.3156,-2.9395 11.5068,-5.1645 17.0411,-7.5059 -5.8657,2.8371 -16.5833,7.1347 -17.5678,8.5917 -0.4358,0.6896 -0.7882,1.2966 -1.1041,1.8307 4.644,-2.6183 10.8777,-4.6056 16.3169,-6.9076 -5.706,2.7643 -12.9792,5.4201 -17.1166,8.2941 -0.3434,0.6395 -0.616,1.1972 -0.8572,1.7401 6.0449,-3.2119 11.1768,-4.7232 16.7646,-7.085 -5.7726,2.794 -11.786,4.9271 -17.3169,8.3816 -0.2194,0.5218 -0.091,0.9599 -0.3965,1.6497 2.6765,-1.734 9.555,-4.1493 14.483,-6.2328 -5.0984,2.4688 -13.7878,5.5972 -15.2944,7.4077 -0.3338,0.7198 -1.4641,2.0483 -1.9599,3.0409 7.6094,-4.0753 10.3412,-4.5279 15.5108,-6.7919 -5.1375,2.4884 -11.8013,5.0698 -15.4133,7.4656 -0.2852,0.5566 -0.9388,1.3638 -1.2804,2.0125 6.6798,-3.6451 9.2708,-4.2546 13.9066,-6.3822 -4.6916,2.3906 -11.8961,5.2959 -14.0753,7.171 -0.054,0.1021 -0.083,0.1547 -0.1395,0.2587 -0.2435,0.4533 -0.6456,1.1806 -0.8008,1.5888 1.0962,-0.8229 7.1464,-3.4527 10.7275,-5.1816 -3.6255,2.0112 -10.425,5.1797 -10.8573,6.0257 -0.1091,0.5534 -0.1576,1.3956 -0.086,1.8482 4.5414,-2.7768 7.0984,-3.633 10.6477,-5.4496 -3.4353,2.1304 -9.833,4.5432 -10.2715,6.0594 3.1152,5.889 25.6681,0.4514 37.4647,-6.8319 -0.8751,-1.7112 -3.3405,-1.4468 -7.0911,-2.5696 4.2063,0.8766 8.0506,1.0187 8.4563,1.8367 2.3296,-1.1215 6.1518,-2.9325 8.3797,-4.1241 -0.3147,-1.8795 -4.4951,-2.4813 -9.101,-3.8595 5.2309,1.0527 11.4694,1.3233 10.9822,2.8825 1.3629,-0.767 3.9844,-2.3115 5.2628,-3.0842 -1.1234,-2.3083 -8.0046,-2.7719 -13.709,-4.48 6.4401,1.253 15.0828,1.5269 15.9174,3.1205 1.8561,-1.2096 4.9346,-3.2757 6.4498,-4.4318 0.5091,-0.3886 0.965,-0.7672 1.4453,-1.1506 -2.6628,-2.4438 -12.5305,-2.1197 -19.8783,-2.7296 7.8756,0.21 16.7165,-0.032 20.7008,1.9163 0.6092,-0.5507 5.5894,-4.5368 6.1627,-5.089 -6.0867,-2.1278 -15.7792,-2.1572 -23.8326,-2.451 8.5643,-0.2799 17.2617,0.5217 24.2794,1.3738 1.0378,-1.1442 3.2794,-3.3761 4.2121,-4.5583 -4.9636,-1.8993 -22.2555,-1.2807 -24.1075,-1.1584 0.4141,-0.045 15.1285,-1.3255 25.3252,-0.1029 0.6863,-0.9891 2.8864,-4.4252 3.5537,-5.4687 -5.526,-0.9677 -14.1684,-1.1704 -22.2176,-0.8362 8.1227,-0.6505 11.6979,-0.7129 23.6524,-0.7264 0.4734,-0.7862 2.6392,-3.9165 3.12,-4.7415 -4.6355,-1.6012 -13.7509,-0.9653 -23.1054,-0.4574 9.61,-1.0941 11.3935,-1.2976 23.338,-0.6946 0.6015,-1.0641 1.8672,-3.753 2.5052,-4.8918 -2.9246,-1.5566 -14.7383,-0.042 -23.8565,1.0647 9.0349,-1.4088 13.3074,-1.9385 24.0111,-2.1749 0.2882,-0.5137 2.01,-3.6859 2.4925,-4.4155 -9.4565,0.01 -16.274,1.2885 -25.1389,2.9183 9.1216,-1.8539 16.9777,-3.6335 25.8732,-3.5883 0.1879,-0.2987 0.4245,-0.62 0.5673,-0.8721 0.3089,-0.5407 1.1574,-1.8555 1.4327,-2.3378 -6.1073,0.2085 -15.2289,1.5183 -23.2105,3.4756 8.0973,-2.28 14.2127,-2.8321 23.5595,-4.4343 1.1815,-2.0527 2.5762,-2.9318 3.2924,-4.1396 -15.7031,1.9968 -16.494,1.892 -23.5081,3.8063 11.063,-3.1423 15.4796,-3.4954 23.7843,-4.7109 0.4115,-0.7162 1.9005,-3.5079 2.4582,-4.6388 -5.934,0.3676 -16.5352,1.5277 -26.0581,4.4868 9.6574,-3.3291 19.6793,-4.5576 26.3867,-5.7573 0.1811,-0.3657 1.9976,-3.3235 2.1909,-3.7091 -2.4858,-0.3203 -15.3781,1.3868 -24.5183,4.6183 9.366,-3.639 18.7018,-4.2708 25.1931,-5.8349 0.2819,-0.541 1.435,-2.2298 1.732,-2.7942 -4.7119,1.0758 -15.417,1.5895 -24.8402,5.013 9.5019,-3.7183 20.6795,-4.7142 25.0802,-5.8902 0.1564,-0.282 1.1748,-1.8097 1.3335,-2.0947 -4.9355,0.9159 -14.3168,1.577 -23.1776,4.587 8.9684,-3.2861 19.2087,-4.6232 23.485,-5.4055 0.197,-0.3505 0.7951,-1.3953 0.9944,-1.7488 l -22.2103,3.9148 22.6678,-4.705 c 0.255,-0.4508 0.5007,-0.9183 0.7586,-1.3724 -3.6401,-0.6387 -12.3783,1.9202 -18.5778,2.8818 6.2942,-1.2136 12.7163,-3.6737 18.8616,-3.6367 0.3067,-0.5377 1.1808,-1.7627 1.4919,-2.3046 -3.7693,-0.4499 -11.2455,1.6536 -17.4505,2.6504 6.422,-1.3869 17.6952,-3.8778 17.5089,-3.2533 0.2668,-0.4641 1.163,-1.4994 1.4298,-1.9635 -1.1164,-0.4549 -10.7749,1.7543 -16.4348,2.7514 5.554,-1.0791 15.7763,-3.6951 16.6716,-3.2384 0.3472,-0.5989 0.9835,-1.636 1.3318,-2.2327 -6.6286,0.025 -10.3809,1.5955 -15.5805,2.3979 5.3661,-1.0848 12.6384,-2.988 15.723,-2.907 0.3435,-0.5877 1.0898,-1.5163 1.4315,-2.0893 -0.4644,-0.7228 -10.2241,1.5761 -15.3191,2.3583 5.2481,-1.0413 13.7724,-3.1728 15.5789,-2.7995 0.2111,-0.3538 0.5796,-1.0392 0.7966,-1.3997 -1.2318,-0.7218 -8.0995,0.6194 -12.1602,0.9293 4.1888,-0.5157 11.9075,-2.134 12.5396,-1.5379 0.4207,-0.7106 0.827,-1.3761 1.2518,-2.0787 0.3976,-0.5538 -9.5183,1.3876 -14.1937,2.0031 4.8378,-0.882 12.1572,-2.6691 14.5176,-2.6485 0.217,-0.3605 0.7884,-1.2134 1.0065,-1.5717 -7.6066,0.274 -10.7058,1.3998 -16.063,2.102 5.5059,-0.9775 13.6169,-3.0864 16.5079,-2.9303 0.3643,-0.6018 1.0958,-1.6888 1.4571,-2.278 -1.1797,-0.4705 -10.1735,1.3358 -15.2601,2.0037 5.1381,-0.8789 13.7545,-3.0315 15.3968,-2.635 0.393,-0.6366 1.4064,-1.881 1.7989,-2.5003 -0.7273,-0.6938 -9.203,1.2045 -13.7972,1.8031 4.7659,-0.9018 11.913,-2.7742 14.305,-2.7089 0.571,-0.9091 1.3606,-2.0648 1.9146,-2.9154 1.6517,-1.2631 -7.9632,1.0018 -12.0567,1.584 4.1947,-0.7862 10.2413,-2.8236 12.5685,-2.3527 0.8783,-1.3293 1.8549,-2.7761 2.6392,-3.8872 -0.9964,-0.6214 -7.2949,0.9508 -10.9424,1.4262 3.7786,-0.6752 8.883,-2.1745 11.3581,-2.0913 0.323,-0.4443 0.9649,-1.2488 1.268,-1.6407 0.5479,-0.7151 0.9037,-1.3523 1.1582,-1.933 -0.5474,-0.5197 -5.3739,0.7039 -8.0572,1.0541 2.7613,-0.5635 5.6852,-1.559 8.2914,-1.6941 1.0295,-3.7943 -4.9557,-4.0875 -12.0882,-1.3006 z" />
      <path
         inkscape:connector-curvature="0"
         id="path91272"
         sodipodi:nodetypes="ccccccccc"
         style="fill:#56210a;fill-opacity:1;stroke:#7c432b;stroke-width:1.40195966;stroke-linejoin:round;stroke-miterlimit:4;stroke-dasharray:none;stroke-opacity:1"
         d="m -1366.8006,1420.7395 c 6.0284,-9.3203 25.1492,-23.2005 38.6633,-35.2507 -9.0328,7.3168 -33.2555,30.1212 -28.8598,25.7132 -37.645,48.2712 -55.6879,73.4628 -91.4949,121.0636 -0.1307,0.1636 -4.3477,3.5651 -4.7388,3.6669 -2.8193,-0.2714 -3.7432,-0.2632 -4.6233,-4.9243 -0.3911,0.1019 30.1133,-31.8443 30.244,-32.0079 l 42.4159,-54.7808 c 0.1315,-0.164 18.0021,-23.3789 18.3936,-23.48 z" />
    </g>
  </g>
</svg>
